{"title":"SuperFly 2018 1080p BluRay x264 DTS [MW]","magnet":"magnet:?xt=urn:btih:e0474e2e2a2dfc412fc9073085ffe3d15387a196&dn=SuperFly+2018+1080p+BluRay+x264+DTS+%5BMW%5D&tr=udp%3A%2F%2Ftracker.leechers-paradise.org%3A6969&tr=udp%3A%2F%2Fzer0day.ch%3A1337&tr=udp%3A%2F%2Fopen.demonii.com%3A1337&tr=udp%3A%2F%2Ftracker.coppersurfer.tk%3A6969&tr=udp%3A%2F%2Fexodus.desync.com%3A6969","uploader":"MFreaky","categoryP":"video","categoryS":"hd___movies","size":"3239145078","seeders":"0","leechers":"0","description":" <a href=\"https://pichub.site/image/DfQ3D\" rel=\"nofollow\" target=\"_NEW\">https://pichub.site/image/DfQ3D</a> <a href=\"\nhttps://pichub.site/image/DfbaZ\" rel=\"nofollow\" target=\"_NEW\">\nhttps://pichub.site/image/DfbaZ</a> <a href=\"\nhttps://pichub.site/image/Dfe8g\" rel=\"nofollow\" target=\"_NEW\">\nhttps://pichub.site/image/Dfe8g</a> <a href=\"\nhttps://pichub.site/image/DfjlI\" rel=\"nofollow\" target=\"_NEW\">\nhttps://pichub.site/image/DfjlI</a> <a href=\"\nhttps://pichub.site/image/DfqqX\" rel=\"nofollow\" target=\"_NEW\">\nhttps://pichub.site/image/DfqqX</a> <a href=\"\nhttps://pichub.site/image/DJfy8\" rel=\"nofollow\" target=\"_NEW\">\nhttps://pichub.site/image/DJfy8</a>\r\n\r\nIMDB <a href=\"\nhttps://www.imdb.com/title/tt7690670/\" rel=\"nofollow\" target=\"_NEW\">\nhttps://www.imdb.com/title/tt7690670/</a>\r\n\r\nVideo\r\nID                                       : 1\r\nFormat                                   : AVC\r\nFormat/Info                              : Advanced Video Codec\r\nFormat profile                           : High@L4.1\r\nFormat settings                          : CABAC / 4 Ref Frames\r\nFormat settings, CABAC                   : Yes\r\nFormat settings, RefFrames               : 4 frames\r\nCodec ID                                 : V_MPEG4/ISO/AVC\r\nDuration                                 : 1 h 56 min\r\nBit rate                                 : 3 000 kb/s\r\nWidth                                    : 1 920 pixels\r\nHeight                                   : 1 036 pixels\r\nDisplay aspect ratio                     : 1.85:1\r\nFrame rate mode                          : Constant\r\nFrame rate                               : 23.976 (24000/1001) FPS\r\nColor space                              : YUV\r\nChroma subsampling                       : 4:2:0\r\nBit depth                                : 8 bits\r\nScan type                                : Progressive\r\nBits/(Pixel*Frame)                       : 0.063\r\nStream size                              : 2.39 GiB (79%)\r\nWriting library                          : x264 core 155 r2901 7d0ff22\r\nDefault                                  : Yes\r\nForced                                   : No\r\n\r\nAudio\r\nID                                       : 2\r\nFormat                                   : DTS\r\nFormat/Info                              : Digital Theater Systems\r\nCodec ID                                 : A_DTS\r\nDuration                                 : 1 h 56 min\r\nBit rate mode                            : Constant\r\nBit rate                                 : 756 kb/s\r\nChannel(s)                               : 6 channels\r\nChannel positions                        : Front: L C R, Side: L R, LFE\r\nSampling rate                            : 48.0 kHz\r\nFrame rate                               : 93.750 FPS (512 SPF)\r\nBit depth                                : 16 bits\r\nCompression mode                         : Lossy\r\nStream size                              : 628 MiB (20%)\r\nLanguage                                 : English\r\nDefault                                  : Yes\r\nForced                                   : No","last_updated":"2018-08-31T12:00:40.390Z","parsed":{"xt":"urn:btih:e0474e2e2a2dfc412fc9073085ffe3d15387a196","dn":"SuperFly 2018 1080p BluRay x264 DTS [MW]","tr":["udp://exodus.desync.com:6969","udp://open.demonii.com:1337","udp://tracker.coppersurfer.tk:6969","udp://tracker.leechers-paradise.org:6969","udp://zer0day.ch:1337"],"infoHash":"e0474e2e2a2dfc412fc9073085ffe3d15387a196","infoHashBuffer":{"type":"Buffer","data":[224,71,78,46,42,45,252,65,47,201,7,48,133,255,227,209,83,135,161,150]},"name":"SuperFly 2018 1080p BluRay x264 DTS [MW]","announce":["udp://exodus.desync.com:6969","udp://open.demonii.com:1337","udp://tracker.coppersurfer.tk:6969","udp://tracker.leechers-paradise.org:6969","udp://zer0day.ch:1337"],"urlList":[]}}